<?xml version="1.0" encoding="UTF-8" standalone="no"?>
<!DOCTYPE svg PUBLIC "-//W3C//DTD SVG 1.1//EN" "http://www.w3.org/Graphics/SVG/1.1/DTD/svg11.dtd">
<svg width="100%" height="100%" viewBox="0 0 2475 2835" version="1.1" xmlns="http://www.w3.org/2000/svg" xmlns:xlink="http://www.w3.org/1999/xlink" xml:space="preserve" xmlns:serif="http://www.serif.com/" style="fill-rule:evenodd;clip-rule:evenodd;stroke-linejoin:round;stroke-miterlimit:2;">
    <g transform="matrix(1,0,0,1,-10.099867,-329.955378)">
        <g transform="matrix(24.931482,0,0,26.0549,-8674.45916,-5842.592254)">
            <g transform="matrix(1,0,0,1,22.237214,-9.050022)">
                <path d="M374.607,288.196C382.352,289.506 382.838,288.85 383.249,288.294C411.358,250.321 410.306,241.408 420.206,247.89C424.45,250.669 427.014,257.576 424.123,260.147C412.939,270.092 384.096,290.241 385.346,293.565C389.193,303.795 385.084,313.151 370.457,309.636C365.047,308.336 343.572,356.26 334.465,354.698C329.373,353.824 323.148,345.035 327.654,340.633C336.554,331.939 367.148,308.579 366.15,305.646C366.038,305.315 365.957,305.448 364.308,301.687L364.913,299.345L365.419,295.465C367.992,290.782 368.361,291.128 372.574,289.01L374.607,288.196ZM368.019,297.38C366.323,315.031 389.393,306.368 382.659,295.412C381.949,294.257 373.693,285.395 368.019,297.38ZM337.293,336.262C333.911,339.451 333.048,339.473 333.868,340.299C340.077,346.554 340.869,345.9 341.276,345.311C359.804,318.453 362.173,316.188 359.514,316.725C357.194,317.194 357.994,318.45 337.293,336.262ZM410.753,254.883C396.76,274.427 387.711,285.82 392.43,282.312C394.542,280.742 418.906,262.631 417.201,260.673C412.252,254.99 411.444,254.932 410.753,254.883ZM336.704,347.396C336.318,346.916 332.643,342.346 330.341,343.065C324.368,344.933 340.494,358.423 336.704,347.396ZM414.087,251.483C417.132,260.544 423.484,258.603 421.807,254.371C421.509,253.618 416.53,246.009 414.087,251.483Z" style="fill:rgb(255,237,59);"/>
            </g>
        </g>
    </g>
</svg>
